<svg class="icon" style="width: 1em;height: 1em;vertical-align: middle;fill: currentColor;overflow: hidden;" viewBox="0 0 1024 1024" version="1.1" xmlns="http://www.w3.org/2000/svg" p-id="1445"><path d="M352.725333 354.901333c-25.898667-18.645333-34.304-74.666667 7.594667-77.482666 10.837333-0.725333 27.050667 3.157333 47.658667 19.328 21.546667 16.896 49.28 18.346667 68.821333 18.218666 30.549333-0.128 25.258667 35.157333 2.56 44.202667-39.04 15.530667-55.424 45.525333-55.424 85.333333-12.074667 0-23.893333 0.384-35.541333 1.152 0-36.693333-2.901333-67.242667-35.669334-90.752z m113.92 91.562667c0-23.296 3.925333-37.888 28.458667-47.658667 65.877333-26.197333 57.898667-126.848-18.517333-126.506666-19.2 0.085333-33.28-2.133333-42.282667-9.130667-26.282667-20.608-52.608-29.952-76.885333-28.330667-81.194667 5.546667-88.106667 112.682667-29.568 154.709334 21.888 15.701333 17.92 36.693333 17.92 60.8-53.930667 8.277333-204.8 41.130667-195.84 118.016 23.082667 199.338667 328.234667 282.965333 472.405333 165.76 35.84 10.112 71.893333 15.018667 104.234667 8.362666 31.616-6.528 61.44-31.061333 41.216-65.152-9.728-16.384-25.685333-28.629333-41.088-39.466666 57.344-57.770667 58.026667-163.157333 113.706666-207.36 43.861333-34.816 49.194667-95.872 17.706667-140.885334-15.786667-22.528-50.730667 1.962667-34.944 24.490667 18.773333 26.794667 17.066667 62.08-9.258667 82.944-64.597333 51.242667-58.752 155.434667-124.373333 217.472a705.493333 705.493333 0 0 0-77.653333-38.186667c-25.557333-10.282667-41.514667 29.269333-16 39.594667 41.088 16.554667 83.2 37.546667 117.888 65.536 11.306667 9.088 22.186667 15.488 4.181333 19.2-25.301333 5.205333-57.386667 0.853333-94.506667-10.752-139.093333-43.392-254.208-139.52-403.370666-152.021333 137.258667-87.936 282.624-27.52 430.208-27.733334 59.221333-0.085333 127.146667-52.821333 69.589333-111.616-49.365333-50.517333-8.832-55.893333 32.426667-35.498666 24.661333 12.16 43.52-26.112 18.858666-38.272-88.448-43.648-164.096 19.370667-81.792 103.594666 28.714667 29.354667-17.493333 39.082667-39.125333 39.125334-61.696 0.085333-122.368-15.616-183.637333-21.034667z m-270.506666 132.778667l1.152 0.042666c139.093333 4.352 249.642667 88.490667 374.698666 137.642667-128.512 73.642667-326.954667 3.968-375.893333-137.685333z" fill="#222222" p-id="1446"></path></svg>